/* XPM */
static char *result[] = {
/* columns rows colors chars-per-pixel */
"64 64 17 1 ",
"  c black",
". c #181818",
"X c #5B3715",
"o c #724C21",
"O c #260751",
"+ c #3D107B",
"@ c gray45",
"# c #885038",
"$ c #9E8B75",
"% c #D08860",
"& c #314396",
"* c #9A9A9A",
"= c #B4B4B4",
"- c #CCB99D",
"; c #F8D098",
": c #F8F0E0",
"> c white",
/* pixels */
"----------------------------------------------------------------",
"----------------------------------------------------------------",
"----------------------------------------------------------------",
"----------------------------------------------------------------",
"----------------------------------------------------------------",
"----------------------------------------------------------------",
"----------------------------------------------------------------",
"----------------------------------------------------------------",
"----------------------------------------------------------------",
"----------------------------------------------------------------",
"----------------------------------------------------------------",
"----------------------------------------------------------------",
"----------------------------------------------------------------",
"----------------------------------------------------------------",
"----------------------------------------------------------------",
"----------------------------------------------------------------",
"------------------>------------      ---------------------------",
"------------------=>-oo------  @@**@@  -------------------------",
"-----------------  =>oo  --- @*===>=*@@ ------------------------",
"----------------@@  =@@ --- @*=====>=*@ ------------------------",
"---------------->@@  =@=--- @=========*@ -----------------------",
"-----------------@@@ oo=>--- ***====***@ -----------------------",
"----------------->@@-oo-----#   *******@ -----------------------",
"------------------@--oo-----#%;; *==***@ -----------------------",
"---------------------ooo----.%##% *=**@@ -----------------------",
"---------------------ooo----.;.:% =***@ ------------------------",
"----------------------ooo---#;.:% *@*@@ ------------------------",
"----------------------ooo---#%%%% *@@@ -------------------------",
"-----------------------o.....#%%#.... --------------------------",
"-----------------------o.####.....XoXX--------------------------",
"------------------------.#;;%###%%XXoXX-------------------------",
"------------------------.#;%%%%;;;XXXoX-------------------------",
"-------------------------.%%%%;;;;%#Xo--------------------------",
"-------------------------o..##%%%%##.---------------------------",
"-------------------------oo-...&&&&&.---------------------------",
"--------------------------ooO+&&%&&&.---------------------------",
"--------------------------ooO+&%%%&O----------------------------",
"----------------------------O+&%%#.-----------------------------",
"----------------------------#OO%%%#-----------------------------",
"----------------------------#OO%%%%#----------------------------",
"----------------------------.#.#%%%%#---------------------------",
"-----------------------------.#.#%;;%.--------------------------",
"------------------------------.#.%;;%.--------------------------",
"------------------------------..%;;%.---------------------------",
"----------------------------...%%%%....-------------------------",
"-$$$--$$$$----$$$$---$$$-----.......--$----$$$$-----$$------$$$$",
"$---------$$--------$$---$-$$-------$--$$$------$$-----$$-----$$",
"----------------------------------------------------------------",
"----------------------------------------------------------------",
"----------------------------------------------------------------",
"----------------------------------------------------------------",
"----------------------------------------------------------------",
"----------------------------------------------------------------",
"----------------------------------------------------------------",
"----------------------------------------------------------------",
"----------------------------------------------------------------",
"----------------------------------------------------------------",
"----------------------------------------------------------------",
"----------------------------------------------------------------",
"----------------------------------------------------------------",
"----------------------------------------------------------------",
"----------------------------------------------------------------",
"----------------------------------------------------------------",
"----------------------------------------------------------------"
};
