/* XPM */
static char *result[] = {
/* columns rows colors chars-per-pixel */
"64 64 11 1 ",
"  c #181818",
". c #6C000A",
"X c #5B3715",
"o c #960014",
"O c #885038",
"+ c #8C6635",
"@ c #9E8B75",
"# c #D08860",
"$ c #CCB99D",
"% c #F8D098",
"& c #F8F0E0",
/* pixels */
"$$$$$$$$$$$$$$$$$$$$$$$$$$$$$$$$$$$$$$$$$$$$$$$$$$$$$$$$$$$$$$$$",
"$$$$$$$$$$$$$$$$$$$$$$$$$$$$$$$$$$$$$$$$$$$$$$$$$$$$$$$$$$$$$$$$",
"$$$$$$$$$$$$$$$$$$$$$$$$$$$$$$$$$$$$$$$$$$$$$$$$$$$$$$$$$$$$$$$$",
"$$$$$$$$$$$$$$$$$$$$$$$$$$$$$$$$$$$$$$$$$$$$$$$$$$$$$$$$$$$$$$$$",
"$$$$$$$$$$$$$$$$$$$$$$$$$$$$$$$$$$$$$$$$$$$$$$$$$$$$$$$$$$$$$$$$",
"$$$$$$$$$$$$$$$$$$$$$$$$$$$$$$$$$$$$$$$$$$$$$$$$$$$$$$$$$$$$$$$$",
"$$$$$$$$$$$$$$$$$$$$$$$$$$$$OO##OO$$$$$$$$$$$$$$$$$$$$$$$$$$$$$$",
"$$$$$$$$$$$$$$$$$$$$$$$$$$$#%%%%%#O$$$$$$$$$$$$$$$$$$$$$$$$$$$$$",
"$$$$$$$$$$$$$$$$$$$$$$$$$$#%%%%%%%#O$$$$$$$$$$$$$$$$$$$$$$$$$$$$",
"$$$$$$$$$$$$$$$$$$$$$$$$$ #%%%%%%%#O$$$$$$$$$$$$$$$$$$$$$$$$$$$$",
"$$$$$$$$$$$$$$$$$$$$$$$$$ O%%%%%%%#O$$$$$$$$$$$$$$$$$$$$$$$$$$$$",
"$$$$$$$$$$$$$$$$$$$$$$$$ #O%%%%%%%#OO$$$$$$$$$$$$$$$$$$$$$$$$$$$",
"$$$$$$$$$$$$$$$$$$$$$$$$ %O#%%%%%##O#$$$$$$$$$$$$$$$$$$$$$$$$$$$",
"$$$$$$$$$$$$$$$$$$$$$$$$ %O########O#$$$$$$$$$$$$$$$$$$$$$$$$$$$",
"$$$$$$$$$$$$$$$$$$$$$$$$ # #OO##OO# O$$$$$$$$$$$$$$$$$$$$$$$$$$$",
"$$$$$$$$$$$$$$$$$$$$$$$$OO O& ## &O OO$$$$$$$$$$$$$$$$$$$$$$$$$$",
"$$$$$$$$$$$$$$$$$$$$$$$$O# O#%%###O #O$$$$$$$$$$$$$$$$$$$$$$$$$$",
"$$$$$$$$$$$$$$$$$$$$$$$O##O O#%%#O O##O$$$$$$$$$$$$$$$$$$$$$$$$$",
"$$$$$$$$$$$$$$$$$$$$$$$O##OO O##O OO##O$$$$$$$$$$$$$$$$$$$$$$$$$",
"$$$$$$$$$$$$$$$$$$$$$$$O    O    O    O$$$$$$$$$$$$$$$$$$$$$$$$$",
"$$$$$$$$$$$$$$$$$$$$$$$ OO O OOOO O OO $$$$$$$$$$$$$$$$$$$$$$$$$",
"$$$$$$$$$$$$$$$$$$$$$$$O#O#O      O#O#O$$$$$$$$$$$$$$$$$$$$$$$$$",
"$$$$$$$$$$$$$$$$$$$$$$$#%#%OO    OO%#%#$$$$$$$$$$$$$$$$$$$$$$$$$",
"$$$$$$$$$$$$$$$$$$$$$$$#%%%%#  # #%%%%#$$$$$$$$$$$$$$$$$$$$$$$$$",
"$$$$$$$$XXXXXXXXXXXXXXXXXXXXXXXXXXXXXXXXXXXXXXXXXXXX$$$$$$$$$$$$",
"$$$$$$$$XXXXXXXXXXXXXXXXXXXXXXXXXXXXXXXXXXXXXXXXXXXX$$$$$$$$$$$$",
"$$$$$$$$XX+++++++++XXXXXXXXXXX+++XXXXXXXXXXX++++XXXX$$$$$$$$$$$$",
"$$$$$$$$XXXXXXXXXXXXXXX+XXXXXXXXXXXXXXXXXXXXXXXXXXXX$$$$$$$$$$$$",
"$$$$$$$$XXXXXXXXXXXXXXXXXXXXXXXXXXXXXXXXXXXXXXXXXXXXX$$$$$$$$$$$",
"$$$$$$$$XXXXXXXX++++++XXXX++++XXXXX++++XXXXXXXXXXXXXX$$$$$$$$$$$",
"$$$$$$$$$XXXXXXXXXXXXXXXXXXXXXX+XXXXXXXXXXXXX+++XXXXX$$$$$$$$$$$",
"$$$$$$$$$XXXXXXXXXXXXXXXXXXXXXXXXXXXXXXXXXXXXXXXX++XX$$$$$$$$$$$",
"$$$$$$$$$XXXXXXXXXXXXXXXXXXXXXXXXXXXXXXXX+XXXXXXXXXXX$$$$$$$$$$$",
"$$$$$$$$$XXXX+++++XXXXXXXX++++XXXXXXXXXXXXX++XXXXXXXXX$$$$$$$$$$",
"$$$$$$$$$XXXXXXXXXXXXXXXXXXXXXXXXXXXXXXXXXXXXXXXXXXXXX$$$$$$$$$$",
"$$$$$$$$$$XXXXXXXXXXXXXXXXXXXXXXXXXXXXXXXXXXXXXXXXXXXX$$$$$$$$$$",
"$$$$$$$$$$XXXXXXXXXXXXX+XXXXXXXXX+++++XXXXXXXXXXXXXXXX$$$$$$$$$$",
"$$$$$$$$$$XXXXX++++++XXXXXXXXXXXXXXXXXXXXXXX+++++XXXXX$$$$$$$$$$",
"$$$$$$$$$$XXXXXXXXXXXXXXXXXXXXXXXXXXXXXXXXXXXXXXXXX++XX$$$$$$$$$",
"$$$$$$$$$$XXXXXXXXXXXXXXXXXXXXXXXXXXXXXXXXXXXXXXXXXXXXX$$$$$$$$$",
"$$$$$$$$$$$XXXXXXXXX++++++XXXXX++XXXXXXX++XXXXXXXXXXXXX$$$$$$$$$",
"$$$$$$$$$$$XXXXX++XXXXXXXXXXXXXXXXX++++XXXXXXXXXXX+XXXX$$$$$$$$$",
"$$$$$$$$$$$XXXXXXXXXXXXXXXXXXXXXXXXXXXXXXXXXXXX++XXXXXX$$$$$$$$$",
"$$$$$$$$$$oXXXXXXXXXXXXXXXXXXXXXXXXXXXXXXXXXXXXXXXXXXXX$$$$$$$$$",
"$$$$$$$$$o.$$$$$$$$$$$$$$$$$$$$$$$$$$$$$$$$$$$$$$$$$$..o$$$$$$$$",
"$@@@$$@@@..o$$@@@@$$$@@@$$$$$$$$$$$$$$@$$$$@@@@$$$$.@...$$$$@@@@",
"@$$$$$$$...oo$$$$$$$@@$$$@$@@$$$$$$$$$$@@@$$$$$$@@$.o.$..$$$$$@@",
"$$$$$$$$.$o$$o$$$$$$$$$$$$$$$$$$$$$$$$$$$$$$$$$$$$$.$.$o$$$$$$$$",
"$$$$$$$o$$.$$$$$$$$$$$$$$$$$$$$$$$$$$$$$$$$$$$$$$$.$o...$$$$$$$$",
"$$$$$$$$$oo..$$$$$$$$$$$$$$$$$$$$$$$$$$$$$$$$$$$$o.oo.$.oo$$$$$$",
"$$$$$$$$$o....$$$$$$$$$$$$$$$$$$$$$$$$$$$$$$$$$$o..o$..$$$$$$$$$",
"$$$$$$$$o...o.o$$$$$$$$$$$$$$$$$$$$$$$$$$$$$$$$$$$oo...$$$$$$$$$",
"$$$$$$$$.....$.o$$$$$$$$$$$$$$$$$$$$$$$$$$$$$$$$$$$$.$..$$$$$$$$",
"$$$$$$$..$.$..$$$$$$$$$$$$$$$$$$$$$$$$$$$$$$$$$$$$$..$o.$$$$$$$$",
"$$$$$$$.$$.$.$.$$$$$$$$$$$$$$$$$$$$$$$$$$$$$$$$$$$o.$$o.$$$$$$$$",
"$$$$$$$$$o.$..$$$$$$$$$$$$$$$$$$$$$$$$$$$$$$$$$$$oo.$$$$o$$$$$$$",
"$$$$$$$$$o..$$$$$$$$$$$$$$$$$$$$$$$$$$$$$$$$$$$$oo$$$$$$$o$$$$$$",
"$$$$$$$$$o$.$$$$$$$$$$$$$$$$$$$$$$$$$$$$$$$$$$$$$$$$$$$$$$$$$$$$",
"$$$$$$$$$$$..$$$$$$$$$$$$$$$$$$$$$$$$$$$$$$$$$$$$$$$$$$$$$$$$$$$",
"$$$$$$$oo$$$$$$$$$$$$$$$$$$$$$$$$$$$$$$$$$$$$$$$$$$$$$$$$$$$$$$$",
"$$$$$$$o$$$$$$$$$$$$$$$$$$$$$$$$$$$$$$$$$$$$$$$$$$$$$$$$$$$$$$$$",
"$$$$$$$$$$$$$$$$$$$$$$$$$$$$$$$$$$$$$$$$$$$$$$$$$$$$$$$$$$$$$$$$",
"$$$$$$$$$$$$$$$$$$$$$$$$$$$$$$$$$$$$$$$$$$$$$$$$$$$$$$$$$$$$$$$$",
"$$$$$$$$$$$$$$$$$$$$$$$$$$$$$$$$$$$$$$$$$$$$$$$$$$$$$$$$$$$$$$$$"
};
