/* XPM */
static char *result[] = {
/* columns rows colors chars-per-pixel */
"64 64 19 1 ",
"  c black",
". c #181818",
"X c #6C000A",
"o c #5B3715",
"O c #5A3517",
"+ c #724C21",
"@ c #440351",
"# c #960014",
"$ c #DF0024",
"% c #885038",
"& c #8C6635",
"* c #E8641B",
"= c #F8F400",
"- c #9E8B75",
"; c #D08860",
": c #CCB99D",
"> c #F8D098",
", c #F8F0E0",
"< c white",
/* pixels */
"::::::::::::::::::::::::::::::::::::::::::::::::::::::::::::::::",
"::::::::::::::::::::::::::::::::::::::::::::::::::::::::::::::::",
"::::::::::::::::::::::::::::::::::::::::::::::::::::::::::::::::",
"::::::::::::::::::::::::::::::::::::::::::::::::::::::::::::::::",
"::::::::::::::::::::::::::::::::::::::::::::::::::::::::::::::::",
"::::::::::::::::::::::::::::::::::::::::::::::::::::::::::::::::",
"::::::::::::::::::::::::::::::::::::::::::::::::::::::::::::::::",
"::::::::::::::::::::::::::::::::::::::::::::::::::::::::::::::::",
"::::::::::::::::::::::::::::::::::::::::::::::::::::::::::::::::",
"::::::::::::::::::::::::::::::::::::::::::::::::::::::::::::::::",
"::::::::::::::::::::::::::::::::::::::::::::::::::::::::::::::::",
"::::::::::::::::::::::::::::::::::::::::::::::::::::::::::::::::",
"::::::::::::::::::::::::::::::::::::::::::::::::::::::::::::::::",
"::::::::::::::::::::::::::::::::::::::::::::::::::::::::::::::::",
"::::::::::::::::::::::::::::::::::::::::::::::::::::::::::::::::",
"::::::::::::::::::::::::::::::::::::::::::::::::::::::::::::::::",
"::::::::::::::::::::::::::::::::::::::::::::::::::::::::::::::::",
"::::::::::::::::::::::::::::::::::::::::::::::::::::::::::::::::",
"::::::::::::::::::::::::::::::::::::::::::::::::::::::::::::::::",
"::::::::::::::::::::::::::::::::::::::::::::::::::::::::::::::::",
"::::::::::::::::::::::::::::::::::::::::::::::::::::::::::::::::",
"::::::::::::::::::::::::::::::::::::::::::::::::::::::::::::::::",
"::::::::::::::::::::::::::::::::::::::::::::::::::::::::::::::::",
"::::::::::::::::::::::::::::::::::::::::::::::::::::::::::::::::",
"::::::::@@@@@@@@@@@@@@@@@@@@@@@@@@@@@@@@@@@@@@@@@@@ ::::::::::::",
"::::::::@+@@++@@@+@@@@@@@@+@@@@@@@@@+@@@@@@@@@@@@@@ ::::::::::::",
"::::::::@+@@@+@+@+@@@+@@@%%%%%@@@@@@<@=<@+@@@@+@@@@ ::::::::::::",
"::::::::@+@+@@@+@++@@+@@%;>>>>%%@@@==<=@@+@@@@+@@@@ ::::::::::::",
"::::::::@@@+@@@+@@+@@+@%;>>>>>>;%@@@=<$@@++@@@@@@++  :::::::::::",
"::::::::@@@X@@@@@@+@@+%%;;>>>>>>%@@$***$@@+@@@@@@@+@ :::::::::::",
":::::::::XOXOOo@@@+@@+%%;;;>>>>>>%@@*=*@@@+@@@@@@@++ :::::::::::",
":::::::::XooooO@+@+@@@%%;%%;>>>>>%@$$*<$@@@@@@@@@@@+ :::::::::::",
":::::::##X#oooO@+@@@@@.%%;%;>>>>;%@ $*$ @@@@@+@@@@@@ :::::::::::",
"::::::::#X#oooO@@@@@@@..%;>;;>>>;%@ o o @@@@@+@@++@@  ::::::::::",
":::::::::XX##XXX@@@@@@..%>>;%%;;%@@ ooo @@@@@@@@@+@@@ ::::::::::",
"::::::::::XXXXXXXOOOO@..%>;;,.;;%@@@ o +@@@@@@@@@++@@ ::::::::::",
"::::::::::XX##ooXX%%%%%.%%;;.;>%@@@@ o @@@@+@@@@@@+@@ ::::::::::",
"::::::::::XooXXoo%;>>;;%.%;;>>>%@@@+ o @@@@+@@@@@@@@@ ::::::::::",
"::::::::##XXooXo%;>>>>>;%.%;>>;.@@@++ @@@@@++@@@+@@@@  :::::::::",
":::::::::##XooXo;;;;;>>;%..%%%.@@@@@+@@@@@@++@@@+@@++@ :::::::::",
"::::::::::X#oooo;>>%%;;;%%%..@@@@@@@+@@@@@@@@@@@@@@@@@ :::::::::",
":::::::::XX                                        #XXXX::::::::",
":::::::ooooooooooooooooooooooooooooooooooooooooooooX#X#X::::::::",
":::::::ooooooooooooooooooooooooooooooooooooooooooooX#:#::#::::::",
":::::::oo&&&&&&&&&ooooooooooo&&&ooooooooooo&&&&oooo#XX###:::::::",
":---::-ooooooooooooooo&oooooooooooooooooooooooooooo#XXX::#::----",
"-::::::oooooooooooooooooooooooooooooooooooooooooooooX:XX-:::::--",
":::::::oooooooo&&&&&&oooo&&&&ooooo&&&&ooooooooooooooX:#:::::::::",
"::::::#:oooooooooooooooooooooo&ooooooooooooo&&&oooooXXX:::::::::",
"::::::::oooooooooooooooooooooooooooooooooooooooo&&ooX:X##:::::::",
"::::::::oooooooooooooooooooooooooooooooo&oooooooooooXX::::::::::",
":::::::#oooo&&&&&oooooooo&&&&ooooooooooooo&&oooooooooX::::::::::",
":::::::XoooooooooooooooooooooooooooooooooooooooooooooXX:::::::::",
"::::::XX:oooooooooooooooooooooooooooooooooooooooooooo#X:::::::::",
"::::::X::ooooooooooooo&ooooooooo&&&&&oooooooooooooooo#X:::::::::",
"::::::::#ooooo&&&&&&ooooooooooooooooooooooo&&&&&ooooo::#::::::::",
"::::::::#ooooooooooooooooooooooooooooooooooooooooo&&oo::#:::::::",
"::::::::#ooooooooooooooooooooooooooooooooooooooooooooo::::::::::",
"::::::::::ooooooooo&&&&&&ooooo&&ooooooo&&ooooooooooooo::::::::::",
"::::::##::ooooo&&ooooooooooooooooo&&&&ooooooooooo&oooo::::::::::",
"::::::#:::oooooooooooooooooooooooooooooooooooo&&oooooo::::::::::",
":::::::::#oooooooooooooooooooooooooooooooooooooooooooo::::::::::",
"::::::::::::::::::::::::::::::::::::::::::::::::::::::::::::::::",
"::::::::::::::::::::::::::::::::::::::::::::::::::::::::::::::::"
};
