/* XPM */
static char *c8e73bc6f5f94180ad745f572f623833lUcdlWRNYSAwe20E[] = {
/* columns rows colors chars-per-pixel */
"64 64 14 1 ",
"  c #181818",
". c #6C000A",
"X c #5B3715",
"o c #6E0023",
"O c #724C21",
"+ c gray40",
"@ c #960014",
"# c #885038",
"$ c #9E8B75",
"% c #D08860",
"& c #8E8E8E",
"* c #CCB99D",
"= c #F8D098",
"- c #E6E6E6",
/* pixels */
"****************************************************************",
"****************************************************************",
"****************************************************************",
"****************************************************************",
"****************************************************************",
"****************************************************************",
"****************************************************************",
"****************************************************************",
"****************************************************************",
"****************************************************************",
"****************************************************************",
"****************************************************************",
"****************************************************************",
"****************************************************************",
"****************************************************************",
"****************************************************************",
"***************************##%%##*******************************",
"*************************#%=====%#-+****************************",
"************************#%=======-+&****************************",
"************************#=======-+&#****************************",
"************************#======-+&%#****************************",
"************************#====%-+&%%#****************************",
"************************#%==%-+&#%% ****************************",
"************************#%##-+&= ## ****************************",
"************************#% -+&=% # *****************************",
"************************ %-+&=% #  *****************************",
"************************ -+&%##%%#   ***************************",
"***********************O-+&# %%==%### **************************",
"***********************%O&  ==%===#### *************************",
"**********************O%%O====#%==  ## *************************",
"**********************OO#%==%# #%= *   *************************",
"***********************  #%%# ###. *****************************",
"************************* oooo...@ *****************************",
"**********************  *** oo.@@@ *   *************************",
"********************** # * oo .%%%##XX% ************************",
"********************** #X #oo  %%%%%=XX% ***********************",
"********************** XXXooo  #%%%===XXX **********************",
"*********************** X#oo  * ##%==%  % **********************",
"*********************** ##  **** ###  **  **********************",
"************************  *******   ****************************",
"****************************************************************",
"****************************************************************",
"****************************************************************",
"****************************************************************",
"****************************************************************",
"*$$$**$$$$****$$$$***$$$             *$****$$$$*****$$******$$$$",
"$*********$$********$$***$*$$           $$******$$*****$$*****$$",
"****************************************************************",
"****************************************************************",
"****************************************************************",
"****************************************************************",
"****************************************************************",
"****************************************************************",
"****************************************************************",
"****************************************************************",
"****************************************************************",
"****************************************************************",
"****************************************************************",
"****************************************************************",
"****************************************************************",
"****************************************************************",
"****************************************************************",
"****************************************************************",
"****************************************************************"
};
