/* XPM */
static char *d95f0cd0cdb84a61a87deb5d23a26d33C2KsKrIVh6sYCn1G[] = {
/* columns rows colors chars-per-pixel */
"64 64 15 1 ",
"  c #181818",
". c #6C000A",
"X c #5B3715",
"o c #6E0023",
"O c #724C21",
"+ c gray40",
"@ c #960014",
"# c #885038",
"$ c #9E8B75",
"% c #D08860",
"& c #8E8E8E",
"* c #CCB99D",
"= c #F8D098",
"- c #E6E6E6",
"; c #F8F0E0",
/* pixels */
"****************************************************************",
"****************************************************************",
"****************************************************************",
"****************************************************************",
"****************************************************************",
"****************************************************************",
"****************************************************************",
"****************************************************************",
"****************************************************************",
"****************************************************************",
"****************************************************************",
"****************************************************************",
"****************************************************************",
"****************************************************************",
"****************************************************************",
"****************************************************************",
"**************+&***************##%%##***************************",
"**************-+&************##%=====%#*************************",
"***************-+&***********#%=======%#************************",
"****************-+&*********#%%========#************************",
"*****************-+&********#%%%=======#************************",
"******************-+&*******#%%%##%====#************************",
"*******************-+&****** %%#==#%==%#************************",
"********************-+&***** ## =%=%##%#************************",
"*********************-+&***** # %==%; %#************************",
"**********************-+&****  # %=%; % ************************",
"***********************-+&O   #%%##%%%# ************************",
"************************-O ###%==%% ## *************************",
"************************O ####===%==   %%***********************",
"************************* ##  ==%#=====%%***********************",
"*************************   * =%# #%==%##***********************",
"***************************** .### #%%#  ***********************",
"***************************** @...oooo *************************",
"*************************   * @@@.oo ***  **********************",
"************************ %XX##%%%. oo * # **********************",
"*********************** %XX=%%%%%  oo# X# **********************",
"********************** XXX===%%%#  oooXXX **********************",
"********************** %  %==%## *  ooX# ***********************",
"**********************  **  ### ****  ## ***********************",
"****************************   *******  ************************",
"****************************************************************",
"****************************************************************",
"****************************************************************",
"****************************************************************",
"****************************************************************",
"*$$$**$$$$****$$$$***$$$***             ***$$$$*****$$******$$$$",
"$*********$$********$$**           ****$$$******$$*****$$*****$$",
"****************************************************************",
"****************************************************************",
"****************************************************************",
"****************************************************************",
"****************************************************************",
"****************************************************************",
"****************************************************************",
"****************************************************************",
"****************************************************************",
"****************************************************************",
"****************************************************************",
"****************************************************************",
"****************************************************************",
"****************************************************************",
"****************************************************************",
"****************************************************************",
"****************************************************************"
};
