/* XPM */
static char *a43ca7e637c247b3cb37bffaeb595591TKlH3tnuvHiSJRRQ[] = {
/* columns rows colors chars-per-pixel */
"64 64 17 1 ",
"  c #181818",
". c #2A2017",
"X c #5B3715",
"o c #724C21",
"O c #766454",
"+ c #960014",
"@ c #80512D",
"# c #885038",
"$ c #8C6635",
"% c #A9834F",
"& c #AA834F",
"* c #9F8B75",
"= c #D08860",
"- c #C49D6C",
"; c #CCB99D",
": c #F8D098",
"> c #F8F0E0",
/* pixels */
"XXXXXXXXXXXXXXXXXXXXXXXXXXXXXXXXXXXXXXXXXXXXXXXXXXXXXXXXXXXXXXXX",
"XXXXXXXXXXXXXXXXXXXXXXXXXXXXXXXXXXXXXXXXXXXXXXXXXXXXXXXXXXXXXXXX",
"XXXXXXXXXXXXXXXXXXXXXXXXXXXXXXXXXXXXXXXXXXXXXXXXXXXXXXXXXXXXXXXX",
"XXXXXXXXXXXXXXXXXXXXXXXXXXXXXXXXXXXXXXXXXXXXXXXXXXXXXXXXXXXXXXXX",
"XXXXXXXXXXXXXXXXXXXXXXXXXXXXXXXXXXXXXXXXXXXXXXXXXXXXXXXXXXXXXXXX",
"XXXXXXXXXXXXXXXXXXXXXXXXXXXXXXXXXXXXXXXXXXXXXXXXXXXXXXXXXXXXXXXX",
"XXXXXXXXXXXXXXXXXXXXXXXXXXXXXXXXXXXXXXXXXXXXXXXXXXXXXXXXXXXXXXXX",
"XXXXXXXXXXXXXXXXXXXXXXXXXXXXXXXXXXXXXXXXXXXXXXXXXXXXXXXXXXXXXXXX",
"XXXXXXXXXXXXXXXXXXXXXXXXXXXXXXXXXXXXXXXXXXXXXXXXXXXXXXXXXXXXXXXX",
"XXXXXXXXXXXXXXXXXXXXXXXXXXXXXXXXXXXXXXXXXXXXXXXXXXXXXXXXXXXXXXXX",
"XXXXXXXXXXXXXXXXXXXXXXXXXXXXXXXXXXXXXXXXXXXXXXXXXXXXXXXXXXXXXXXX",
"XXXXXXXXXXXXXXXXXXXXXXXXXXXXXXXXXXXXXXXXXXXXXXXXXXXXXXXXXXXXXXXX",
"XXXXXXXXXX..XXXXXXXXXXXXXXXXXXXXXXXXXXXXXXXXXXXXXXXXXXXXXXXXXXXX",
"XXXXXXXXX.----..XXXXXXXXXXXXX..XXXXXXXXXXXXXXXXX..XXXXXXXXXXXXXX",
"XXXXXXXX.-:::::..XXXXXXXXXXX.----..XXXXXXXXXXXX.----..XXXXXXXXXX",
"XXXXXXXX.-:::::=.XXXXXXXXXX.-:::::..XXXXXXXXXX.-:::::..XXXXXXXXX",
"XXXXXXXX.-:::::=.XXXXXXXXXX.-:::::=.XXXXXXXXXX.-:::::=.XXXXXXXXX",
"XXXXXXX.X-:::::=.XXXXXXXXXX.-:::::=.XXXXXXXXXX.-:::::=.XXXXXXXXX",
"XXXXXXX-@@:::::=X.XXXXXXXX.X-:::::=.XXXXXXXXX.X-:::::=.XXXXXXXXX",
"XXXXXXX-===:::==#..XXXXXXX-@@:::::=X.XXXXXXXX-@@:::::=X.XXXXXXXX",
"XXXXXXX@-=##==## ..XXXXXXX-===:::==#..XXXXXXX-===:::==#..XXXXXXX",
"XXXX..XX@#> == > .XXXXXXXX@-=##==## ..XXXXXXX@-=##==## ..XXXXXXX",
"XX..X--@X#=#::#= .X..X...XX@#> == > .XX..X..XX@#> == > .XX..XXXX",
"X.-:==:==##=::=# X@.=  #..@X#=#::#= .X....X--@X#=#::#= .X..X..XX",
"X.-::==:=# ####  #== ::==:==##=::=# X@. ::==:==##=::=# X@.==:=.X",
"XX--: #=###    ###=# :::==:=# ####  #== :::==:=# ####  #===::=.X",
"XXX...   #======#   #::: #=###    ###=##::: #=###    ###=# :==XX",
"XXXXX.X#   #==#  #==##      #======#   ##      #======#  ....XXX",
"XXXXXX@=#       ==####XX ##   #==#  #==#XXX ==####==#  #=@XXXXXX",
"XXXXXX@==#     =::::==#X#==#       #===#XXX=::::==#   #==@XXXXXX",
"XXXXX.X==#    =::::::==##===#      #==# XX=::::::==#  #==X.XXXXX",
"XXXXXX        =::::::==# #==#          XXX=::::::==#      XXXXXX",
"$$$$$$$$ ###  #::::::==#X         ### $$$$#::::::==# ### $$$$$$$",
"$$$$$$$ #### =#::::::==##$$ ###   #### $$=#::::::==###### $$$$$$",
"$$$$$$ #==#  :==:::::=# #$ ####    #==# $:==:::::=# # #==# $$$$$",
"$$$$$$$      :===:::==#   #==#         $$:===:::==#       $$$$$$",
"$$$$$$$$$$$$$=:=##==##   $      $$$$$$$$$=:=##==##   $$$$$$$$$$$",
"$$$$$$$$$$  ##=#> == >  ##  $$$$$$$$$$  ##=#> == >  ##  $$$$$$$$",
"$$$$$$$$  #::=##=#::#=  #::#  $$$$$$  #::=##=#::#=  #::#  $$$$$$",
"$$$$$$$ ::==:==##=::=# #=:==:: $$$$ ::==:==##=::=# #=:==:: $$$$$",
"$$$$$$$ :XX==:=# ####  #===::: $$$$XX::==:=# ####  #===:XX $$$$$",
"$$$$$$$#:XX #=###    ###=# :::#$$$$XX:: #=###    ###=# :XX#$$$$$",
"$$$$$$$##XX    #======#     oooo$$$XX      #===oooooo   XXoooooo",
"oooooo$$$XX ##   #==#  #==oooooooo$XXooo##   ooo#  #ooooXXoooooo",
"oooooooo$XX#==#  ooooo#==ooo%%%%oooXXooooooooo    #=ooooXX%%%%%%",
"%%%%%%%ooXXoooooooo   oooo &%%%%%ooXX%%#ooooo     #==# &XX%%%%%%",
"%%&&&&&&&XXooooooo    ooo &%%%%%%%%XX%% #==#          &%XX%%%%%%",
"&&&&&&&&&XX&         ### &&&&&%%%%%XX%%&         ### &&&XX%&&&&%",
"&&&&&&&&&XX&&& ###   #### &&&&&&&&&XX&&&&& ###   #### &&XX&&&&&&",
"&&&&&&&&&XX&& ####    #==# &&&&&&&&XX&&&& ####    #==# &XX&&&&&&",
"&&&&&&&&&XX& #==#         &&&&&&&&&XX&&& #==#         &&XX&&&&&&",
"&&&&&&&&&XX&&      &&&&&&&&&&&&&&&&XX&&&&      &&&&&&&&&XX&&&&&&",
"&&&&&&&&&XX&&&&&%&&&&&&%&&&&&&&&&&&XX&&&&&&&%%%%&&&&&&&&XX&&&&&&",
"XXXXXXXXXXXXXXXXXXXXXXXXXXXXXXXXXXXXXXXXXXXXXXXXXXXXXXXXXXXXXXXX",
"XXXXXXXXXXXXXXXXXXXXXXXXXXXXXXXXXXXXXXXXXXXXXXXXXXXXXXXXXXXXXXXX",
"XXXO*O**O*XXXXXX*O**O**OXXXXXX**O*OO*XXXXXX*O**O**XXXXX*O**OO*XX",
"XXO*OO*OOO*XXXXO*O*OOO*O*XXXXO*OOO*OO*XXXXO*O*OOO*OXXXO*O*OO*OOX",
"**O**OO*O*OOO*O*OOO*O*OOO*O*OOO*O**O*OO**O*OOO*O*OOO*O*OOO*O**O*",
"O*O**O**OO*O**O**O**O**O**O**O**O**O**O**O**O**O**O**O**O**O*OOO",
"*OOO*O*OO*OO*OOO*O*OOO*O*OOO*O*OOO*O*OOO*O*OOO*O*OOO*O*OOO*OO*O*",
"**O*OOO*O**OO*O*OOO*O*OOO*O*OOO*O*OOO*O*OOO*O*OOO*O*OOO*O*OO**O*",
";;O;;O;;O;;O++O;;O;;O;;O;;O;;O;;O;;O;;O;;O;;O+;O;;O;;O;;O;;O;+O+",
"+;;;;;;;;;;++;;;;;;;;;;;;;;;;;;;;;;;;+;;;;;;;+++;;;;;;;;;;;;;+++",
"++;;;;;;;;+;;;;;;;;;;;;;+;;;;;;+;;;;;;;;;;;;;;+++;;;;;;;;;;;;;;+"
};
