/* XPM */
static char *_601053ed7df4798a052f3b43a470c52URYaLqu3atvXZYNp[] = {
/* columns rows colors chars-per-pixel */
"64 64 16 1 ",
"  c #181818",
". c #372D20",
"X c #6C000A",
"o c #5B3715",
"O c #724C21",
"+ c #734E25",
"@ c #8B5E36",
"# c #885038",
"$ c #8C6635",
"% c #976B3C",
"& c #946E3D",
"* c #9E8B75",
"= c #D08860",
"- c #CCB99D",
"; c #F8D098",
": c #F8F0E0",
/* pixels */
"$$$O$$$$$$$$$$$O$$$$$$$$$+--------------------------------------",
"$$$$$$$$$$$$$$$O$$$$O$$$$+--------------------------------------",
"$$$$$$$$O$$$$$$$$$$$O$$$$+--X-----------------------------------",
"$$$$$$$$$O$$$$$$$$$$O$$$$+XXX-----------------------------------",
"$$$O$$$$$O$$$@@@@@$$O$$$$+XX------------------------------------",
"$$$O$$$$$O$$@%;;;&@@$$$$$+-X------------------------------------",
"$$$O$$$$$$$@%;;;;;;%@$$$$+--------------------------------------",
"$$$$$$$$$$@@==;;;;;;@$$$$+--------------------------------------",
"$$$$$$$$$$@#===;;;;;&@$$$+--------------------------------------",
"$$$$$$O$$$@#=##=;;;;;@$$$+--------------------------------------",
"$$O$$$O$$$.##=#=;;;;=@$$++--------------------------------------",
"$O$$$$O$$$. #=;==;;;%@$$+---------------------------------------",
"$O$$$$$$$$. #;;=##==@$$$+XX-------------------------------------",
"$O$$$$$$$$. #;==: =%@$$++-X-------------------------------------",
"$$$$$$@@@@@ ##== =;@$O++oo-X------------------------------------",
"$$$$$@%;;==# #==;;;@$O++ooXX------------------------------------",
"$$$$@%;;;;;=# #=;;%.$O$+o---------------------------------------",
"$$$$%====;;=#  #@@.$$$$+----------------------------------------",
"$$$$%;;##===### .$O$$$$+----------------------------------------",
"$$$$%;;#### ### .$O@@@@@----------------------------------------",
"$$$$...#==## # #@.@%;;;;##--------------------------------------",
"$$$$$$.====#  ####=;;;;;;=#-------------------------------------",
"$$$$$.@==;;=  ####==;;;;;;#-------------------------------------",
"$$$$$.#=;;;=   ###===;;;;;;#------------------------------------",
"$$$$$.##==##    ##=##=;;;;;#------------------------------------",
"$$$$$.==###  ### ##=#=;;;;=#------------------------------------",
"$$$$$.=;;;=       #=;==;;;=#------------------------------------",
"$$$$$.==;;;=   $  #;;=##==#-------------------------------------",
"$$$$.........$$$  #;==: ==#-------------------------------------",
"$$$$$$$$$$$$@#### ##== =;#--X-----------------------------------",
"$$$$$$$$$$$@%;;==# #==;;;#--------------------------------------",
"$$$$$$$$$$@%;;;;;=# #=;;= --------------------------------------",
"$$$$$$$$$$%====;;=#  ### ---------------------------------------",
"$$OO$$$$$$%;;##===###  o----------------------------------------",
"$$$O$$$$$$%;;########  o----------------------------------------",
"$$$O$$$$$$..#=;;;;## ##o----------------------------------------",
"$$$$$$$$$$$@=;;;;;;=###ooXX-------------------------------------",
"$$$$$$$O$$@@==;;;;;;##ooooX-------------------------------------",
"$$$$$$$O$$@#===;;;;;;#oooo--------------------------------------",
"$$$$$$$OO$@#=##=;;;;;# ooo-X------------------------------------",
"$$$$$$$$O$.##=#=;;;;=###o---------------------------------------",
"$$$$$$$$O$. #=;==;;;%@..+---------------------------------------",
"$$O$$$$$$$. #;;=##==@$$$+---------------------------------------",
"$$O$$$$$$$. #;==: =%@$$$+---------------------------------------",
"$$O$$$@@@@@ ##== =;@$$$$+---------------------------------------",
"$$O$$@%;;==# #==;;;@$$$++-----***---**-----****-----**------****",
"$OO$@%;;;;;=# #=;;%.$$$+-*-**-----*----***------**-----**-----**",
"$O$$%====;;=#  #@@.$$$$+----------------------------------------",
"$$$$%;;##===### .$$$$$$+----------------------------------------",
"$$$$%;;#### ### .$$$$$++----------------------------------------",
"$$$$...#==## # #@.$$$++oo---------------------------------------",
"$$$$$$.====#  ###@.$$++oo---------------------------------------",
"$$$$$.@==;;=  ####.$$$++----------------------------------------",
"$$$$$.#=;;;=   ##@.$$$$+X---------------------------------------",
"$$$$$.##==##     .$$$$$+XX--------------------------------------",
"$$$$$.==###  ####@.$$$$++XXX------------------------------------",
"$$$$$.=;;;=   .....$$O$$+X-XX-----------------------------------",
"$$$$$.==;;;=...$$$$$OO$$+---------------------------------------",
"$$$$.........$$$$$$$$$$$+---------------------------------------",
"$$$$$$$$$$$$$$$$$$$$O$$$++--------------------------------------",
"$$$$$$$$$$$$$$$O$$$$$$$$$+--------------------------------------",
"$$OO$$$$$$$$$$$OO$$$$$$$$+X-------------------------------------",
"$$$OO$$$$$$$$$$$O$$$$$$$$+XX------------------------------------",
"$$$$O$$$$$$$$$$$O$$$$$$$$+-X------------------------------------"
};
