/* XPM */
static char *_c2a5d1dbce443a2d78d783caa740648GO70v5M2V7nb5ytY[] = {
/* columns rows colors chars-per-pixel */
"64 64 8 1 ",
"  c #181818",
". c #5B3715",
"X c #724C21",
"o c #885038",
"O c #8C6635",
"+ c #D08860",
"@ c #CCB99D",
"# c #F8D098",
/* pixels */
"@@@@@@@@@@@@@@@@@@@@@@@@@@@@@@@@@@@@@@@@@@@@@@@@@@@@@@@@@@@@@@@@",
"@@@@@@@@@@@@@@@@@@@@@@@@@@@@@@@@@@@@@@@@@@@@@@@@@@@@@@@@@@@@@@@@",
"@@@@@@@@@@@@@@@@@@@@@@@@@@@@@@@@@@@@@@@@@@@@@@@@@@@@@@@@@@@@@@@@",
"@@@@@@@@@@@@@@@@@@@@@@@@@@@@@@@@@@@@@@@@@@@@@@@@@@@@@@@@@@@@@@@@",
"@@@@@@@@@@@@@@@@@@@@@@@@@@@@@@@@@@@@@@@@@@@@@@@@@@@@@@@@@@@@@@@@",
"@@@@@@@@@@@@@@@@@@@@@@@@@@@@@@@@@@@@@@@@@@@@@@@@@@@@@@@@@@@@@@@@",
"@@@@@@@@@@@@@@@@@@@@@@@@@@@@@@@@@@@@@@@@@@@@@@@@@@@@@@@@@@@@@@@@",
"@@@@@@@@@@@@@@@@@@@@@@@@@@@@@@@@@@@@@@@@@@@@@@@@@@@@@@@@@@@@@@@@",
"@@@@@@@@@@@@@@@@@@@@@@@@@@@@@@@@@@@@@@@@@@@@@@@@@@@@@@@@@@@@@@@@",
"@@@@@@@@@@@@@@@@@@@@@@@@@@@@@@@@@@@@@@@@@@@@@@@@@@@@@@@@@@@@@@@@",
"@@@@@@@@@@@@@@@@@@@@@@@@@@@@@@@@@@@@@@@@@@@@@@@@@@@@@@@@@@@@@@@@",
"@@@@@@@@@@@@@@@@@@@@@@@@@@@@@@@@@@@@@@@@@@@@@@@@@@@@@@@@@@@@@@@@",
"@@@@@@@@@@@@@@@@@@@@@@@@@@@@@@@@@@@@@@@@@@@@@@@@@@@@@@@@@@@@@@@@",
"@@@@@@@@@@@@@@@@@@@@@@@@@@@@@@@@@@@@@@@@@@@@@@@@@@@@@@@@@@@@@@@@",
"@@@@@@@@@@@@@@@@@@@@@@@@@@@@@@@@@@@@@@@@@@@@@@@@@@@@@@@@@@@@@@@@",
"@@@@@@@@@@@@@@@@oo++oo@@@@@@@@@@@@@@@@@@@@oo++oo@@@@@@@@@@@@@@@@",
"@@@@@@@@@@@@@@@+#####+o@@@@@@@@@@@@@@@@@@+#####+o@@@@@@@@@@@@@@@",
"@@@@@@@@@@@@@@+#######+o@@@@@@@@@@@@@@@@+#######+o@@@@@@@@@@@@@@",
"@@@@@@@@@@@@@@+#######+o@@@@@@@@@@@@@@@@+#######+o@@@@@@@@@@@@@@",
"@@@@@@@@@@@@@+o#######+oo@@@@@@@@@@@@@@+o#######+oo@@@@@@@@@@@@@",
"@@@@@@@@@@@@@#o#######+o+@@@@@@@@@@@@@@#o#######+o+@@@@@@@@@@@@@",
"@@@@@@@@@@..O#o+#####++o+@@@@@@@..@@@@@#o+#####++o+@@@@@@@..@@@@",
"@OOOO@@@@@..O+ oo++++oo oOOOO@@@..@@OOO+ oo++++oo o@@@@@@@..O@@@",
"OOOOOOOOOO.oo   oo++oo   ooOOOOO..@OOOo   oo++oo   ooOO@OO..OOOO",
"OO@@OOOOOOo++###++++++###++o@@OO..O@o++###++++++###++oOOOO..@OOO",
"@@@@@@@@@@o#####+####+#####o@@@@..O@o#####+####+#####o@OO@..@@@@",
"@@@@@@@@@o+##++++####++++##+o@@@..@o+##++++####++++##+o@@@..@@@@",
"XXXXXXXXXo+++ooo++##++ooo+++oXXXXXXo+++ooo++##++ooo+++oXXXXXXXXX",
"XXXXXXXXXooo   oo###++o    ooXXXXXXooo   oo###++o    ooXXXXXXXXX",
"XXXXXXXXX oo  oo+####o++++o  XXXXXX oo  oo+####o++++o  XXXXXXXXX",
"XXXXXXXXXX  o+++#####+##++o XXXXXXXX  o+++#####+##++o XXXXXXXXXX",
"XXXXXXXXoo++oo##########+o XXoo++ooXXo++##########oo++ooXXXXXXXX",
"XXXXXXX+#####+o####+###+o  X+#####+oXo++#####+###+#####+oXXXXXXX",
"XXXXXX+#######+o###o++oooo +#######+oXo++####o+++#######+oXXXXXX",
"XXXXXX+#######+o++o  oooo  +#######+oX  o+++o  o+#######+oXXXXXX",
"XXXXX+o#######+oo#+       +o#######+oo o++##+  +o#######+ooXXXXX",
"XXXXX#o#######+o+#+     XX#o#######+o+X o###+  #o#######+o+XXXXX",
"XXXXX#o+#####++o+   XXXXXX#o+#####++o+XX      X#o+#####++o+XXXXX",
"XXXXX+ oo++++oo oXXXXXXXXX+ oo++++oo oXXXXXXXXX+ oo++++oo oXXXXX",
"XXXoo   oo++oo   ooXXXXXoo   oo++oo   ooXXXXXoo   oo++oo   ooXXX",
"XXo++###++++++###++oXXXo++###++++++###++oXXXo++###++++++###++oXX",
"XXo#####+####+#####oXXXo#####+####+#####oXXXo#####+####+#####oXX",
"Xo+##++++####++++##+oXo+##++++####++++##+oXo+##++++####++++##+oX",
".o+++ooo++##++ooo+++o.o+++ooo++##++ooo+++o.o+++ooo++##++ooo+++o.",
".ooo   oo###++o    oo.ooo   oo###++o    oo.ooo   oo###++o    oo.",
". oo  oo+####o++++o  . oo  oo+####o++++o  . oo  oo+####o++++o  .",
"..  o+++#####+##++o ...  o+++#####+##++o ...  o+++#####+##++o ..",
"...o++##########+o .....o++##########+o .....o++##########+o ...",
"...o++#####+###+o  .....o++#####+###+o  .....o++#####+###+o  ...",
"....o++####o++oooo ......o++####o++oooo ......o++####o++oooo ...",
"....  o+++o  oooo  ......  o+++o  oooo  ......  o+++o  oooo  ...",
".... o++##+       ....... o++##+       ....... o++##+       ....",
"..... o###+     .......... o###+     .......... o###+     ......",
"......      ...............      ...............      ..........",
"................................................................",
"................................................................",
"................................................................",
"................................................................",
"................................................................",
"................................................................",
"................................................................",
"................................................................",
"................................................................",
"................................................................"
};
