/* XPM */
static char *b7e3da713e4e4cb7c592cd1d32f3b8a78KyxkwLxj2mW4zPC[] = {
/* columns rows colors chars-per-pixel */
"64 64 16 1 ",
"  c #181818",
". c #372D20",
"X c #6C000A",
"o c #5B3715",
"O c #724C21",
"+ c #734E25",
"@ c #8B5E36",
"# c #885038",
"$ c #8C6635",
"% c #976B3C",
"& c #946E3D",
"* c #9E8B75",
"= c #D08860",
"- c #CCB99D",
"; c #F8D098",
": c #F8F0E0",
/* pixels */
"--------------------------------------+$$$$$$$$$O$$$$$$$$$$$O$$$",
"--------------------------------------+$$$$O$$$$O$$$$$$$$$$$$$$$",
"-----------------------------------X--+$$$$O$$$$$$$$$$$O$$$$$$$$",
"-----------------------------------XXX+$$$$O$$$$$$$$$$O$$$$$$$$$",
"------------------------------------XX+$$$$O$$@@@@@$$$O$$$$$O$$$",
"------------------------------------X-+$$$$$@@&;;;%@$$O$$$$$O$$$",
"--------------------------------------+$$$$@%;;;;;;%@$$$$$$$O$$$",
"--------------------------------------+$$$$@;;;;;;==@@$$$$$$$$$$",
"--------------------------------------+$$$@&;;;;;===#@$$$$$$$$$$",
"--------------------------------------+$$$@;;;;;=##=#@$$$O$$$$$$",
"--------------------------------------++$$@=;;;;=#=##.$$$O$$$O$$",
"---------------------------------------+$$@%;;;==;=# .$$$O$$$$O$",
"-------------------------------------XX+$$$@==##=;;# .$$$$$$$$O$",
"-------------------------------------X-++$$@%= :==;# .$$$$$$$$O$",
"------------------------------------X-oo++O$@;= ==## @@@@@$$$$$$",
"------------------------------------XXoo++O$@;;;==# #==;;%@$$$$$",
"---------------------------------------o+$O$.%;;=# #=;;;;;%@$$$$",
"----------------------------------------+$$$$.@@#  #=;;====%$$$$",
"----------------------------------------+$$$$O$. ###===##;;%$$$$",
"----------------------------------------@@@@@O$. ### ####;;%$$$$",
"--------------------------------------##;;;;%@.@# # ##==#...$$$$",
"-------------------------------------#=;;;;;;=####  #====.$$$$$$",
"-------------------------------------#;;;;;;==####  =;;==@.$$$$$",
"------------------------------------#;;;;;;===###   =;;;=#.$$$$$",
"------------------------------------#;;;;;=##=##    ##==##.$$$$$",
"------------------------------------#=;;;;=#=## ###  ###==.$$$$$",
"------------------------------------#=;;;==;=#       =;;;=.$$$$$",
"-------------------------------------#==##=;;#  $   =;;;==.$$$$$",
"-------------------------------------#== :==;#  $$$.........$$$$",
"-----------------------------------X--#;= ==## ####@$$$$$$$$$$$$",
"--------------------------------------#;;;==# #==;;%@$$$$$$$$$$$",
"-------------------------------------- =;;=# #=;;;;;%@$$$$$$$$$$",
"--------------------------------------- ###  #=;;====%$$$$$$$$$$",
"----------------------------------------o  ###===##;;%$$$$$$OO$$",
"----------------------------------------o  ########;;%$$$$$$O$$$",
"----------------------------------------o## ##;;;;=#..$$$$$$O$$$",
"-------------------------------------XXoo###=;;;;;;=@$$$$$$$$$$$",
"-------------------------------------Xoooo##;;;;;;==@@$$O$$$$$$$",
"--------------------------------------oooo#;;;;;;===#@$$O$$$$$$$",
"------------------------------------X-ooo #;;;;;=##=#@$OO$$$$$$$",
"---------------------------------------o###=;;;;=#=##.$O$$$$$$$$",
"---------------------------------------+..@%;;;==;=# .$O$$$$$$$$",
"---------------------------------------+$$$@==##=;;# .$$$$$$$O$$",
"---------------------------------------+$$$@%= :==;# .$$$$$$$O$$",
"---------------------------------------+$$$$@;= ==## @@@@@$$$O$$",
"****------**-----****-----**---***-----++$$$@;;;==# #==;;%@$$O$$",
"**-----**-----**------***----*-----**-*-+$$$.%;;=# #=;;;;;%@$OO$",
"----------------------------------------+$$$$.@@#  #=;;====%$$O$",
"----------------------------------------+$$$$$$. ###===##;;%$$$$",
"----------------------------------------++$$$$$. ### ####;;%$$$$",
"---------------------------------------oo++$$$.@# # ##==#...$$$$",
"---------------------------------------oo++$$.@###  #====.$$$$$$",
"----------------------------------------++$$$.####  =;;==@.$$$$$",
"---------------------------------------X+$$$$.@##   =;;;=#.$$$$$",
"--------------------------------------XX+$$$$$.     ##==##.$$$$$",
"------------------------------------XXX++$$$$.@####  ###==.$$$$$",
"-----------------------------------XX-X+$$O$$.....   =;;;=.$$$$$",
"---------------------------------------+$$OO$$$$$...=;;;==.$$$$$",
"---------------------------------------+$$$$$$$$$$$.........$$$$",
"--------------------------------------++$$$O$$$$$$$$$$$$$$$$$$$$",
"--------------------------------------+$$$$$$$$$O$$$$$$$$$$$$$$$",
"-------------------------------------X+$$$$$$$$OO$$$$$$$$$$$OO$$",
"------------------------------------XX+$$$$$$$$O$$$$$$$$$$$OO$$$",
"------------------------------------X-+$$$$$$$$O$$$$$$$$$$$O$$$$"
};
